<?xml version="1.0" standalone="no"?>
<!DOCTYPE svg PUBLIC "-//W3C//DTD SVG 20010904//EN"
 "http://www.w3.org/TR/2001/REC-SVG-20010904/DTD/svg10.dtd">
<svg version="1.0" xmlns="http://www.w3.org/2000/svg"
 width="157.000000pt" height="157.000000pt" viewBox="0 0 157.000000 157.000000"
 preserveAspectRatio="xMidYMid meet">
<metadata>
Created by potrace 1.11, written by Peter Selinger 2001-2013
</metadata>
<g transform="translate(0.000000,157.000000) scale(0.100000,-0.100000)"
fill="#000000" stroke="none">
<path d="M555 1517 c-125 -14 -236 -81 -300 -182 -40 -62 -54 -126 -49 -213 9
-125 78 -224 198 -281 33 -16 138 -52 231 -79 94 -27 192 -60 219 -72 117 -56
177 -161 169 -294 -5 -84 -36 -148 -99 -205 -83 -76 -143 -96 -289 -95 -139 0
-201 18 -284 84 -53 42 -109 129 -118 185 -3 19 -8 35 -12 36 -3 0 -14 2 -25
4 -16 3 -18 -1 -13 -31 9 -52 49 -135 88 -179 81 -92 215 -146 364 -146 199
-1 338 77 407 227 19 40 23 66 23 144 0 84 -3 102 -28 152 -50 103 -132 156
-327 212 -271 79 -329 105 -391 175 -22 25 -45 65 -54 94 -68 228 93 420 356
426 176 4 308 -68 376 -205 46 -95 84 -78 40 19 -76 165 -256 250 -482 224z"/>
<path d="M1111 1503 c-17 -14 -23 -32 -26 -75 -2 -32 -1 -58 3 -59 40 -4 256
-2 274 3 13 3 -5 6 -44 7 l-68 1 3 31 c2 26 10 35 56 59 51 27 82 50 69 50 -3
0 -34 -16 -67 -34 -37 -22 -61 -30 -61 -22 0 7 -9 22 -20 34 -26 27 -88 30
-119 5z m116 -20 c7 -9 13 -36 13 -60 l0 -43 -74 0 -74 0 4 48 c5 60 33 86 84
78 19 -3 41 -13 47 -23z"/>
<path d="M1085 1238 c2 -29 4 -59 4 -65 1 -10 37 -13 146 -13 l145 0 -2 68 -2
67 -3 -62 -4 -62 -64 2 -65 2 0 54 c0 67 -9 63 -12 -5 l-3 -49 -62 -1 c-69 -2
-63 -9 -67 75 0 16 -4 32 -7 35 -4 4 -5 -17 -4 -46z"/>
<path d="M1147 1059 c-87 -46 -85 -169 3 -214 70 -35 172 -18 210 35 25 35 30
98 10 134 -32 60 -150 84 -223 45z m150 -1 c57 -26 85 -72 73 -124 -11 -48
-35 -72 -89 -88 -87 -25 -173 18 -186 94 -15 90 106 160 202 118z"/>
<path d="M1140 739 c-49 -4 -32 -6 70 -7 134 -2 144 -6 90 -34 -78 -42 -210
-123 -210 -130 0 -4 66 -8 147 -8 80 0 143 3 140 7 -4 3 -63 6 -132 6 -143 -1
-143 -4 -5 77 41 24 90 52 108 63 18 11 31 22 28 24 -8 8 -159 9 -236 2z"/>
<path d="M1205 459 c72 -3 131 -7 133 -8 13 -6 38 -67 35 -86 -10 -50 -35 -60
-172 -66 l-126 -5 120 -2 c102 -2 125 1 151 17 59 36 48 127 -17 150 -18 6
-82 10 -143 9 l-111 -1 130 -8z"/>
<path d="M1283 207 c-22 -7 -35 -19 -43 -41 -35 -95 -64 -121 -110 -96 -46 25
-45 91 2 124 17 12 19 16 6 16 -9 0 -26 -12 -37 -26 -59 -75 38 -178 107 -114
11 11 26 36 31 56 13 48 38 74 71 74 36 0 60 -29 60 -73 0 -31 -5 -41 -32 -57
-18 -11 -26 -20 -17 -20 25 0 49 23 58 55 18 67 -33 121 -96 102z"/>
</g>
</svg>
