<svg id="Layer_1" data-name="Layer 1" xmlns="http://www.w3.org/2000/svg" width="296.85mm" height="34.09mm" viewBox="0 0 841.46 96.63">
  <defs>
    <style>
      .cls-1 {
        fill: #2f0d00;
      }
    </style>
  </defs>
  <g>
    <path class="cls-1" d="M100.22,72.3l3-3.44a15.39,15.39,0,0,0,10.86,4.88c5.17,0,8.23-2.58,8.23-6.4,0-4-2.85-5.31-6.56-6.93l-5.66-2.5c-3.67-1.56-8-4.34-8-10.13,0-6,5.24-10.46,12.39-10.46a16.3,16.3,0,0,1,11.6,4.88l-2.66,3.22a12.58,12.58,0,0,0-8.94-3.69c-4.41,0-7.34,2.23-7.34,5.75,0,3.79,3.43,5.21,6.52,6.51l5.61,2.43c4.56,2,8.11,4.68,8.11,10.53,0,6.22-5.14,11.19-13.41,11.19A18.88,18.88,0,0,1,100.22,72.3Z"/>
    <path class="cls-1" d="M138.22,61.16V38h5V61.3c0,9.46,4,12.44,9.14,12.44s9.33-3,9.33-12.44V38h4.81V61.16c0,12.64-6.1,17-14.14,17S138.22,73.8,138.22,61.16Z"/>
    <path class="cls-1" d="M176.71,72.3l3-3.44a15.37,15.37,0,0,0,10.86,4.88c5.17,0,8.23-2.58,8.23-6.4,0-4-2.85-5.31-6.57-6.93l-5.65-2.5c-3.67-1.56-8-4.34-8-10.13,0-6,5.25-10.46,12.4-10.46a16.26,16.26,0,0,1,11.59,4.88l-2.65,3.22A12.6,12.6,0,0,0,191,41.73c-4.42,0-7.34,2.23-7.34,5.75,0,3.79,3.43,5.21,6.52,6.51l5.61,2.43c4.56,2,8.11,4.68,8.11,10.53,0,6.22-5.14,11.19-13.42,11.19A18.87,18.87,0,0,1,176.71,72.3Z"/>
    <path class="cls-1" d="M224.62,38h5.65l13.32,39.38h-5.31l-6.86-22c-1.42-4.4-2.68-8.73-3.95-13.27h-.24c-1.22,4.57-2.48,8.87-3.89,13.27l-7,22h-5.1ZM218.3,61.43h18.13v4H218.3Z"/>
    <path class="cls-1" d="M253.49,38h5.17L272.92,62.8,277.17,71h.24c-.26-4-.64-8.41-.64-12.53V38h4.76V77.42h-5.18L262.1,52.64l-4.25-8.13h-.24c.25,4,.64,8.19.64,12.3V77.42h-4.76Z"/>
    <path class="cls-1" d="M295.59,38h5.18L315,62.8,319.27,71h.24c-.25-4-.64-8.41-.64-12.53V38h4.76V77.42h-5.18L304.2,52.64,300,44.51h-.24c.25,4,.64,8.19.64,12.3V77.42h-4.76Z"/>
    <path class="cls-1" d="M337.69,38h22.7v4.24H342.7V54.62h14.92v4.24H342.7V73.18H361v4.24h-23.3Z"/>
    <path class="cls-1" d="M391.87,38h5.18L411.3,62.8,415.55,71h.24c-.25-4-.64-8.41-.64-12.53V38h4.76V77.42h-5.17L400.48,52.64l-4.25-8.13H396c.26,4,.64,8.19.64,12.3V77.42h-4.76Z"/>
    <path class="cls-1" d="M432.22,77.09l31.37-40.82,2.78,2.11L435,79.2Zm.25-19.5c0-12.61,6.94-20.27,16.83-20.27S466.13,45,466.13,57.59s-6.94,20.55-16.83,20.55S432.47,70.2,432.47,57.59Zm28.48,0c0-9.81-4.62-15.86-11.65-15.86s-11.66,6.05-11.66,15.86,4.63,16.15,11.66,16.15S461,67.4,461,57.59Z"/>
    <path class="cls-1" d="M478.48,38h12.33c8,0,13.78,2.88,13.78,11.09,0,7.86-5.76,11.65-13.78,11.65h-7.32V77.42h-5Zm11.61,18.67c6.13,0,9.5-2.48,9.5-7.58s-3.37-7-9.5-7h-6.6v14.6Zm-.26,2.69,3.92-2.59,12,20.61h-5.68Z"/>
    <path class="cls-1" d="M514.69,57.77c0-12.7,7.64-20.45,18.08-20.45a15.27,15.27,0,0,1,11.35,4.86l-2.74,3.26a11.14,11.14,0,0,0-8.48-3.71c-7.93,0-13,6.09-13,15.9S524.55,73.74,533,73.74A10.63,10.63,0,0,0,540,71.42V61.17h-8.33V57h12.9V73.57c-2.53,2.64-6.84,4.57-12.13,4.57C522.09,78.14,514.69,70.56,514.69,57.77Z"/>
    <path class="cls-1" d="M566.75,38h5.66l13.32,39.38h-5.31l-6.87-22c-1.41-4.4-2.67-8.73-3.94-13.27h-.24c-1.22,4.57-2.48,8.87-3.9,13.27l-6.94,22h-5.1Zm-6.31,23.39h18.13v4H560.44Z"/>
    <path class="cls-1" d="M606.64,38h5.65l13.33,39.38h-5.31l-6.87-22C612,51,610.76,46.7,609.5,42.16h-.24c-1.22,4.57-2.48,8.87-3.9,13.27l-6.94,22h-5.1Zm-6.32,23.39h18.14v4H600.32Z"/>
    <path class="cls-1" d="M635.52,38h12.33c8,0,13.78,2.88,13.78,11.09,0,7.86-5.76,11.65-13.78,11.65h-7.32V77.42h-5Zm11.61,18.67c6.13,0,9.5-2.48,9.5-7.58s-3.37-7-9.5-7h-6.6v14.6Zm-.27,2.69,3.93-2.59,12,20.61h-5.68Z"/>
    <path class="cls-1" d="M673.64,38h9.85c12.11,0,18.6,7,18.6,19.55s-6.49,19.83-18.38,19.83H673.64Zm9.48,35.27c9.2,0,13.79-5.77,13.79-15.72s-4.59-15.44-13.79-15.44h-4.47V73.31Z"/>
  </g>
</svg>
